<?xml version="1.0" encoding="utf-8"?>
<!-- Generator: Adobe Illustrator 23.0.4, SVG Export Plug-In . SVG Version: 6.00 Build 0)  -->
<svg version="1.1" id="Layer_1" xmlns="http://www.w3.org/2000/svg" xmlns:xlink="http://www.w3.org/1999/xlink" x="0px" y="0px"
	 viewBox="0 0 1000 1000" style="enable-background:new 0 0 1000 1000;" xml:space="preserve">
<style type="text/css">
	.st0{fill:none;}
</style>
<g transform="translate(0.000000,1000.000000) scale(0.100000,-0.100000)">
	<path d="M0,4580V0h5000h5000v4580v4580H5000H0V4580z M5675,8440h120l568-568l567-567v-120v-120l107-107l108-108l-85-85l-85-85
		l63-62l62-63l90,90l90,90l110-110l110-110l-110-110l-110-110l-88,88l-87,87l-70-70l-70-70l90-90l90-90l-108-108l-107-107v-120v-120
		l-568-568l-567-567h-120h-120l-280-280l-280-280l-280,280l-280,280h-120h-120l-567,567l-568,568v120v120l-107,107l-108,108l90,90
		l90,90l-68,67l-67,68l-85-85l-85-85l-110,110l-110,110l110,110l110,110l88-88l88-87l59,60l59,60l-84,85l-85,85l108,108l107,107v120
		v120l568,568l567,567h120h120l280,280l280,280l280-280l280-280H5675z M6580,3118c0-145,4-268,8-274s16-15,27-20c16-7,8-9-32-12
		c-29-2-77-2-105,0c-41,3-49,5-33,12c11,5,23,14,27,20s8,117,8,246s-4,240-8,246s-16,14-27,19c-15,7-5,11,45,15c36,4,71,7,78,8
		C6577,3380,6580,3322,6580,3118z M8670,3109c0-262,1-271,20-276c40-11,18-21-52-25c-40-3-75-3-77-2c-2,2-3,79-2,172
		c2,184,2,182-55,182c-52,0-83-116-64-236c12-76,38-103,80-87c36,14,39,0,5-23c-38-25-108-14-146,22c-39,37-52,86-48,176
		c4,64,9,80,33,112c15,21,40,42,54,48c36,14,109,13,127-2c13-11,15-1,15,68c0,89-5,112-26,112c-8,0-14,4-14,10c0,5,26,11,58,13
		c31,2,65,4,75,5C8669,3380,8670,3361,8670,3109z M7325,3305c50-25,65-25,65,1c0,8,5,14,10,14c6,0,10-35,10-85c0-83-14-114-25-57
		c-19,86-68,132-142,132c-91,0-143-90-143-250c0-157,44-240,126-240c60,0,74,18,74,93c0,71-7,85-47,103c-25,11-15,12,81,13
		c100,1,107,0,95-15c-9-11-16-54-20-113c-4-65-8-89-13-73c-10,28-12,27-78-3c-121-56-261-13-321,98c-18,34-22,58-22,132
		c0,77,4,97,25,139C7062,3314,7209,3364,7325,3305z M1045,3310c-3-5-15-10-26-10s-19-7-19-17c0-22,121-343,130-343
		c7,0,88,222,100,275c11,47-3,85-30,85c-11,0-20,5-20,10c0,6,30,10,70,10c65,0,90-10,55-23c-21-9-45-62-125-284
		c-70-193-74-203-99-203s-31,13-116,227c-49,125-101,240-113,255l-24,28h112C1011,3320,1049,3316,1045,3310z M4680,3228
		c0-96-8-104-29-29c-17,58-60,101-100,101h-31v-216c0-129,4-223,10-235c6-11,21-19,35-19c13,0,27-4,30-10c4-6-42-10-130-10
		s-134,4-130,10c3,6,16,10,29,10c44,0,46,12,46,247v223h-31c-43,0-83-43-99-108c-8-28-17-52-22-52c-4,0-8,41-8,90v90h215h215V3228z
		 M3390,3180c22,0,40-4,40-8c0-5-12-8-27-7c-53,3-53,3-53-150c0-79,3-150,6-159c9-22,34-20,61,6c34,32,28,2-6-33
		c-32-31-71-38-114-18c-40,18-47,50-47,204c0,147-1,150-37,146c-6-1-14,3-18,9s6,10,24,10c30,0,31,1,31,50c0,50,0,50,33,50
		c17,0,39,5,47,10c13,8,15,0,18-50l3-60H3390z M1602,3168c34-17,42-51,46-191c4-131,5-138,24-134c12,4,18,1,15-6c-5-17-69-31-102-23
		c-15,4-29,16-32,26c-5,19-23,28-23,12s-59-42-94-42c-47,0-86,36-86,79c0,34,40,87,73,97c12,3,43,15,70,26l47,20v54
		c0,72-30,99-85,78c-14-6-13-10,7-31c21-22,21-26,7-51c-17-32-59-40-83-17c-40,40-1,99,75,114C1508,3188,1574,3183,1602,3168z
		 M2103,3168c29-15,37-53,37-183c0-131,4-155,25-155c8,0,17-4,20-10c4-6-28-10-89-10c-57,0-96,4-96,10s6,10,14,10s17,7,20,16
		c10,27,7,264-4,285c-14,25-62,25-85-1c-15-17-19-39-20-129c-2-131,3-171,21-171c8,0,14-4,14-10s-37-10-90-10c-84,0-117,11-70,23
		c19,5,20,14,20,150c0,153-4,177-26,177c-8,0-14,5-14,10c0,7,27,10,73,8c70-3,72-4,69-28l-4-25l25,24C1984,3187,2051,3195,2103,3168
		z M2420,3021c0-184,5-200,55-187c42,11,55,52,55,181c0,113-1,117-26,140l-27,25h54c30,0,64,3,77,6l22,6v-168c0-93,4-174,8-180
		s16-14,27-19c24-10,14-12-72-18l-63-3v30c-1,26-2,28-11,13c-25-43-123-62-166-32c-32,23-43,75-43,213c0,115-1,124-20,129
		c-38,10-20,22,38,26c31,2,65,4,75,5C2419,3190,2420,3176,2420,3021z M3022,3168c34-17,42-51,46-191c4-131,5-138,24-134
		c12,4,18,1,15-6c-5-17-69-31-102-23c-15,4-29,16-32,26c-5,19-23,28-23,12s-59-42-94-42c-47,0-86,36-86,79c0,34,40,87,73,97
		c12,3,43,15,70,26l47,20v54c0,72-30,99-85,78c-14-6-13-10,7-31c21-22,21-26,7-51c-17-32-59-40-83-17c-40,40-1,99,75,114
		C2928,3188,2994,3183,3022,3168z M3670,3021c0-184,5-200,55-187c42,11,55,52,55,181c0,113-1,117-26,140l-27,25h54c30,0,64,3,77,6
		l22,6v-168c0-93,4-174,8-180s16-14,27-19c24-10,14-12-72-18l-63-3v30c-1,26-2,28-11,13c-25-43-123-62-166-32c-32,23-43,75-43,213
		c0,115-1,124-20,129c-38,10-20,22,38,26c31,2,65,4,75,5C3669,3190,3670,3176,3670,3021z M5068,3165c23-21,18-76-8-97
		c-23-19-58-16-72,6c-11,16-10,64,2,71c20,13,9,24-13,14c-41-19-50-47-52-164c-2-137,3-159,38-163c15-2,27-8,27-13s-47-9-105-9
		c-97,0-134,10-85,23c19,5,20,14,20,150c0,153-4,177-26,177c-8,0-14,5-14,10c0,7,27,10,73,8c68-3,72-4,71-26l-1-23l21,20
		C4986,3189,5036,3195,5068,3165z M5432,3168c34-17,42-51,46-191c4-131,5-138,24-134c12,4,18,1,15-6c-5-17-69-31-102-23
		c-15,4-29,16-32,26c-5,19-23,28-23,12s-59-42-94-42c-47,0-86,36-86,79c0,34,40,87,73,97c12,3,43,15,70,26l47,20v54
		c0,72-30,99-85,78c-14-6-13-10,7-31c21-22,21-26,7-51c-17-32-59-40-83-17c-40,40-1,99,75,114C5338,3188,5404,3183,5432,3168z
		 M6278,3163c27-16,52-69,52-108c0-25,0-25-94-25c-53,0-98-4-101-10s-3-31,1-57c14-93,89-131,154-77c56,48,49,5-9-50
		c-24-23-42-30-83-33c-106-8-168,58-168,179c0,113,41,179,124,198C6193,3190,6248,3182,6278,3163z M7680,3021c0-184,5-200,55-187
		c42,11,55,52,55,181c0,113-1,117-26,140l-27,25h54c30,0,64,3,77,6l22,6v-168c0-93,4-174,8-180s16-14,27-19c24-10,14-12-72-18l-63-3
		v30c-1,26-2,28-11,13c-25-43-123-62-166-32c-32,23-43,75-43,213c0,115-1,124-20,129c-38,10-20,22,38,26c31,2,65,4,75,5
		C7679,3190,7680,3176,7680,3021z M8181,3183c0-5,2-80,3-168c2-162,6-185,32-185c8,0,14-4,14-10s-38-10-95-10c-88,0-122,11-75,23
		c19,5,20,14,20,150c0,153-4,177-26,177c-8,0-14,4-14,10c0,5,26,11,58,13c31,2,63,4,70,5C8174,3189,8180,3187,8181,3183z M9068,3163
		c27-16,52-69,52-108c0-25,0-25-94-25c-53,0-98-4-101-10s-3-31,1-57c14-93,89-131,154-77c56,48,49,5-9-50c-24-23-42-30-83-33
		c-106-8-168,58-168,179c0,113,41,179,124,198C8983,3190,9038,3182,9068,3163z M5750,3169c-13-6-26-12-28-14c-3-2,15-56,38-120
		s44-114,46-112c9,8,64,173,64,190c0,10-12,29-26,42l-27,25h64h63l-21-22c-13-12-46-92-79-185c-54-156-58-164-82-161
		c-22,3-32,21-91,170c-38,96-75,174-86,182c-18,14-11,15,85,15C5749,3179,5769,3176,5750,3169z"/>
	<path d="M4852,8727l-142-142l52-53l53-52l93,93l93,92l88-92l87-92l52,52l52,52l-143,143l-142,142L4852,8727z"/>
	<path d="M3692,7807l-543-543l3-52l3-52l595,595l595,595h-55h-55L3692,7807z"/>
	<path d="M3812,7687l-662-662v-105v-105l760,760c418,418,760,763,760,767c0,5-44,8-98,8h-97L3812,7687z"/>
	<path d="M3980,7515l-835-835l58-57l57-58l835,835l835,835l-58,58l-57,57L3980,7515z"/>
	<path d="M5122,8297c-29-29-52-57-52-62c0-6,373-384,830-840l830-830l57,58l58,57l-235,236c-495,498-1430,1434-1433,1434
		C5176,8350,5151,8326,5122,8297z"/>
	<path d="M5320,8342c0-4,342-349,760-767l760-760v105v105l-663,663l-662,662h-98C5364,8350,5320,8347,5320,8342z"/>
	<path d="M6240,7755l595-595l3,52l3,52l-543,543l-543,543h-55h-55L6240,7755z"/>
	<path d="M4160,7335l-835-835l835-835l836-836l829,831c457,457,830,835,830,840c0,7-1653,1670-1659,1670
		C4995,8170,4619,7794,4160,7335z M4920,7056c0-8-16-16-42-20c-54-9-68-21-68-60c0-22,278-762,295-783c5-8,219,593,231,650
		c24,115,2,167-82,189c-24,7-44,18-44,25c0,10,37,13,165,13c182,0,197-6,128-51c-21-13-50-45-66-71s-109-262-206-525l-178-478h-58
		h-59l-211,518c-119,290-222,529-235,542c-13,14-31,27-42,31c-10,3-18,12-18,20c0,12,39,14,245,14C4876,7070,4920,7068,4920,7056z"
		/>
	<path d="M2650,6575l-65-65l68-68l68-67l66,69l65,68l-63,64c-35,35-66,64-69,64S2685,6611,2650,6575z"/>
	<path d="M7210,6575l-65-65l68-68l67-67l67,67l68,68l-65,65c-35,36-67,65-70,65S7245,6611,7210,6575z"/>
	<path d="M3205,6380l-50-50l835-835l835-835l52,52l53,53l-832,832c-458,458-835,833-838,833S3232,6407,3205,6380z"/>
	<path d="M5897,5602c-455-455-827-832-827-837c0-6,21-32,48-58l47-47l835,835l835,835l-50,50c-27,27-52,50-55,50
		S6353,6058,5897,5602z"/>
	<path d="M3150,6090v-115l663-663l663-663l112,3l112,3l-775,775l-775,775V6090z"/>
	<path d="M6060,5425l-775-775h115h115l663,663l663,663l-3,112l-3,112L6060,5425z"/>
	<path d="M3150,5790v-55l543-543l543-543l52,3l52,3l-595,595l-595,595V5790z"/>
	<path d="M6240,5245l-595-595h55h55l543,543l543,543l-3,52l-3,52L6240,5245z"/>
	<path d="M4767,4472l-57-57l143-143l142-142l143,143l142,142l-58,58l-58,57l-84-85l-85-85l-85,85l-86,85L4767,4472z"/>
</g>
<rect id="_x3C_Slice_x3E_" class="st0" width="999" height="84"/>
</svg>
