<?xml version="1.0" encoding="UTF-8"?>
<svg width="231px" height="81px" viewBox="0 0 231 81" version="1.1" xmlns="http://www.w3.org/2000/svg" xmlns:xlink="http://www.w3.org/1999/xlink">
    <!-- Generator: Sketch 53 (72520) - https://sketchapp.com -->
    <title>dev_what_we_do</title>
    <desc>Created with Sketch.</desc>
    <g id="dev_what_we_do" stroke="none" stroke-width="1" fill="none" fill-rule="evenodd">
        <g id="Group-15-Copy-6">
            <text id="Developer" font-family="National2-Extrabold, National 2" font-size="28" font-weight="600" letter-spacing="0.2333333" fill="#FEFEFE">
                <tspan x="15.0938227" y="40.5748242">D</tspan>
                <tspan x="35.011156" y="40.5748242" letter-spacing="0.2419753">eveloper</tspan>
            </text>
            <g id="Group-15-Copy-5" transform="translate(0.093823, 0.574824)">
                <g id="Group-7" transform="translate(0.000000, 0.534000)">
                    <polygon id="Fill-1" fill="#0173BB" points="213.608228 0.5613 0.18646962 0.5613 0.18646962 65.5773 16.5794696 78.9263 230 78.9263 230 65.5773 230 13.9113"></polygon>
                    <polygon id="Fill-5" fill="#00578A" points="0.186101266 65.577 214.186101 65.577 214.186101 0.561 0.186101266 0.561"></polygon>
                </g>
                <path d="M25.9761773,21.5348242 L31.3461773,21.5348242 L33.6861773,33.5048242 L33.7461773,33.5048242 L36.2061773,21.5348242 L42.0861773,21.5348242 L37.2261773,41.5748242 L31.0161773,41.5748242 L28.5861773,29.8448242 L28.5261773,29.8448242 L26.1561773,41.5748242 L19.8861773,41.5748242 L15.0261773,21.5348242 L21.1461773,21.5348242 L23.6061773,33.5048242 L23.6961773,33.5048242 L25.9761773,21.5348242 Z M49.8961773,19.9148242 L49.8961773,29.1548242 C50.6461773,27.0848242 52.4461773,25.9448242 54.6361773,25.9448242 C57.3961773,25.9448242 59.4361773,27.5948242 59.4361773,30.9248242 L59.4361773,41.5748242 L53.3761773,41.5748242 L53.3761773,32.9648242 C53.3761773,31.6748242 53.0161773,30.9248242 51.8461773,30.9248242 C50.7661773,30.9248242 49.8961773,31.6748242 49.8961773,33.5648242 L49.8961773,41.5748242 L43.8361773,41.5748242 L43.8361773,19.9148242 L49.8961773,19.9148242 Z M76.1561773,31.2548242 L76.1561773,36.5348242 C76.1561773,37.2248242 76.5761773,37.4948242 77.0561773,37.4948242 C77.3861773,37.4948242 77.5961773,37.3748242 77.8361773,37.1648242 L78.0161773,41.0048242 C77.1761773,41.5448242 76.0661773,41.8748242 74.8361773,41.8748242 C73.3661773,41.8748242 72.1361773,41.3648242 71.3861773,40.4948242 C71.1461773,40.2248242 70.9361773,39.9248242 70.8161773,39.5648242 C70.1861773,40.9748242 68.4761773,41.8448242 66.4361773,41.8448242 C63.4661773,41.8448242 61.5461773,40.2248242 61.5461773,37.3748242 C61.5461773,34.3448242 64.2461773,32.7248242 68.1761773,32.7248242 C68.8961773,32.7248242 69.7661773,32.7848242 70.2761773,32.8448242 L70.2761773,31.4048242 C70.2761773,30.5948242 69.8861773,30.1448242 69.1361773,30.1448242 C68.3261773,30.1448242 67.8161773,30.7148242 67.8461773,31.8848242 L62.3561773,31.1648242 C62.5961773,28.0148242 65.0861773,25.9448242 69.3761773,25.9448242 C74.2061773,25.9448242 76.1561773,28.0448242 76.1561773,31.2548242 Z M70.2761773,36.2648242 L70.2761773,35.5448242 C70.1261773,35.5148242 69.6761773,35.4548242 69.3761773,35.4548242 C68.0261773,35.4548242 67.3361773,35.9648242 67.3361773,36.8648242 C67.3361773,37.5848242 67.8161773,38.0648242 68.6561773,38.0648242 C69.4661773,38.0648242 70.2761773,37.6148242 70.2761773,36.2648242 Z M90.0261773,36.3248242 L90.7161773,40.4948242 C89.5761773,41.4548242 87.9561773,41.9348242 86.1561773,41.9348242 C82.7361773,41.9348242 80.2761773,40.2848242 80.2761773,36.3848242 L80.2761773,30.7148242 L78.4461773,30.7148242 L78.4461773,26.3048242 L80.3061773,26.3048242 L80.3061773,23.0648242 L86.3661773,22.4048242 L86.3661773,26.3048242 L90.0561773,26.3048242 L90.0561773,30.7148242 L86.3361773,30.7148242 L86.3361773,35.5148242 C86.3361773,36.6248242 86.8461773,37.1048242 87.8061773,37.1048242 C88.5561773,37.1048242 89.2761773,36.8648242 90.0261773,36.3248242 Z M107.716177,26.3048242 L112.156177,26.3048242 L113.986177,35.1548242 L114.046177,35.1548242 L115.696177,26.3048242 L121.516177,26.3048242 L117.436177,41.5748242 L111.646177,41.5748242 L109.876177,33.3548242 L109.816177,33.3548242 L108.016177,41.5748242 L102.226177,41.5748242 L98.1461773,26.3048242 L104.176177,26.3048242 L105.826177,35.1548242 L105.886177,35.1548242 L107.716177,26.3048242 Z M130.076177,37.5248242 C131.066177,37.5248242 131.756177,37.0448242 132.116177,35.9048242 L136.946177,37.6148242 C135.896177,40.5848242 132.986177,41.9348242 129.956177,41.9348242 C125.156177,41.9348242 122.066177,38.9648242 122.066177,34.1348242 C122.066177,29.1848242 125.036177,25.9448242 130.076177,25.9448242 C134.846177,25.9448242 137.066177,29.1548242 137.066177,32.9648242 C137.066177,33.5348242 136.946177,34.4648242 136.796177,34.9748242 L127.856177,34.9748242 C127.856177,36.6248242 128.846177,37.5248242 130.076177,37.5248242 Z M127.916177,32.4248242 L131.486177,32.4248242 C131.546177,32.2448242 131.546177,32.0048242 131.546177,31.7648242 C131.546177,30.8948242 131.006177,30.1448242 129.986177,30.1448242 C128.816177,30.1448242 127.976177,31.0448242 127.916177,32.4248242 Z M155.656177,34.3448242 L155.656177,32.9648242 C155.656177,31.2248242 154.756177,30.2948242 153.616177,30.2948242 C152.086177,30.2948242 151.336177,31.6448242 151.336177,34.0448242 C151.336177,36.1448242 152.206177,37.2848242 153.496177,37.2848242 C154.756177,37.2848242 155.656177,36.2048242 155.656177,34.3448242 Z M156.376177,41.5748242 L155.686177,38.8148242 C155.146177,40.7948242 153.406177,41.9348242 151.216177,41.9348242 C147.766177,41.9348242 145.126177,39.0248242 145.126177,34.3148242 C145.126177,28.8848242 147.796177,25.9448242 151.516177,25.9448242 C153.556177,25.9448242 155.056177,26.7548242 155.656177,28.2248242 L155.656177,19.9148242 L161.716177,19.9148242 L161.716177,41.5748242 L156.376177,41.5748242 Z M180.026177,33.9248242 C180.026177,39.0548242 176.786177,41.9348242 171.986177,41.9348242 C167.186177,41.9348242 163.946177,39.0548242 163.946177,33.9248242 C163.946177,28.8248242 167.186177,25.9448242 171.986177,25.9448242 C176.786177,25.9448242 180.026177,28.8248242 180.026177,33.9248242 Z M174.026177,33.9248242 C174.026177,31.6148242 173.456177,30.2948242 171.986177,30.2948242 C170.516177,30.2948242 169.946177,31.6148242 169.946177,33.9248242 C169.946177,36.2648242 170.516177,37.5548242 171.986177,37.5548242 C173.456177,37.5548242 174.026177,36.2648242 174.026177,33.9248242 Z" id="Whatwedo" fill="#FEFEFE" fill-rule="nonzero"></path>
            </g>
        </g>
    </g>
</svg>